<svg width="14" height="15" viewBox="0 0 14 15" fill="none" xmlns="http://www.w3.org/2000/svg">
<path fill-rule="evenodd" clip-rule="evenodd" d="M7.67742 6.57258V0.927419C7.67742 0.747756 7.60605 0.575452 7.47901 0.448412C7.35197 0.321371 7.17966 0.25 7 0.25C6.82034 0.25 6.64803 0.321371 6.52099 0.448412C6.39395 0.575453 6.32258 0.747757 6.32258 0.927419V6.57258H0.677419C0.497757 6.57258 0.325453 6.64395 0.198412 6.77099C0.0713708 6.89803 0 7.07034 0 7.25C0 7.42966 0.071371 7.60197 0.198412 7.72901C0.325452 7.85605 0.497756 7.92742 0.677419 7.92742H6.32258V13.5726C6.32258 13.7522 6.39395 13.9245 6.52099 14.0516C6.64803 14.1786 6.82034 14.25 7 14.25C7.17966 14.25 7.35197 14.1786 7.47901 14.0516C7.60605 13.9245 7.67742 13.7522 7.67742 13.5726V7.92742H13.3226C13.5022 7.92742 13.6745 7.85605 13.8016 7.72901C13.9286 7.60197 14 7.42966 14 7.25C14 7.07034 13.9286 6.89803 13.8016 6.77099C13.6745 6.64395 13.5022 6.57258 13.3226 6.57258H7.67742Z" fill="#595959"/>
</svg>
