<svg width="14" height="14" viewBox="0 0 14 14" fill="none" xmlns="http://www.w3.org/2000/svg">
<path d="M5.14099 1.2084C5.41743 0.931963 5.41743 0.483767 5.14099 0.207329C4.86455 -0.0691096 4.41636 -0.0691096 4.13992 0.207329L0.207329 4.13991C-0.0691097 4.41635 -0.0691097 4.86455 0.207329 5.14099L4.13992 9.07357C4.41636 9.35001 4.86455 9.35001 5.14099 9.07357C5.41743 8.79713 5.41743 8.34893 5.14099 8.0725L2.41681 5.34832H5.42696C9.37995 5.34832 12.5843 8.55263 12.5843 12.5056V13.2921C12.5843 13.6831 12.9012 14 13.2921 14C13.6831 14 14 13.6831 14 13.2921V12.5056C14 7.77074 10.1618 3.93259 5.42696 3.93259H2.4168L5.14099 1.2084Z" fill="#595959"/>
</svg>
