<svg width="14" height="14" viewBox="0 0 14 14" fill="none" xmlns="http://www.w3.org/2000/svg">
<path d="M11.9808 2.04872C10.6861 0.739446 8.93333 0.00436917 7.10616 0.00436917C5.27899 0.00436917 3.52623 0.739446 2.23148 2.04872L1.23514 3.06054V0.62716C1.23514 0.460827 1.17007 0.301306 1.05426 0.183691C0.93844 0.0660755 0.781359 0 0.617569 0C0.45378 0 0.296698 0.0660755 0.180882 0.183691C0.0650651 0.301306 2.34818e-09 0.460827 2.34818e-09 0.62716V4.59081C-1.42431e-05 4.75792 0.064787 4.91831 0.180373 5.03726C0.295959 5.15621 0.453027 5.22413 0.617569 5.22633H4.52884C4.69263 5.22633 4.84971 5.16026 4.96553 5.04264C5.08134 4.92502 5.14641 4.7655 5.14641 4.59917C5.14641 4.43284 5.08134 4.27332 4.96553 4.1557C4.84971 4.03809 4.69263 3.97201 4.52884 3.97201H2.05856L3.10431 2.93511C4.16641 1.85869 5.60564 1.25414 7.10616 1.25414C8.60668 1.25414 10.0459 1.85869 11.108 2.93511C16.205 8.52937 8.63773 16.2393 3.10431 11.0631C2.98852 10.9457 2.83156 10.8797 2.6679 10.8797C2.50424 10.8797 2.34728 10.9457 2.23148 11.0631C2.17322 11.1208 2.12691 11.1897 2.0953 11.2658C2.06368 11.3419 2.04739 11.4237 2.04739 11.5063C2.04739 11.5889 2.06368 11.6707 2.0953 11.7468C2.12691 11.8229 2.17322 11.8918 2.23148 11.9495C3.52433 13.2624 5.2778 14 7.10616 14C8.93452 14 10.688 13.2624 11.9808 11.9495C13.2737 10.6366 14 8.85586 14 6.9991C14 5.14235 13.2737 3.36164 11.9808 2.04872Z" fill="#595959"/>
<path d="M6.99912 3.4452C6.83599 3.44736 6.68015 3.51413 6.56479 3.63128C6.44943 3.74843 6.38368 3.9067 6.38155 4.07236V6.9991C6.38169 7.16538 6.44685 7.32479 6.5627 7.4423L8.64597 9.50774C8.70299 9.56637 8.77096 9.61284 8.8459 9.64443C8.92084 9.67603 9.00124 9.6921 9.08238 9.69171C9.19083 9.67567 9.29311 9.63062 9.37875 9.56118C9.46438 9.49173 9.53027 9.4004 9.56967 9.29655C9.60907 9.19271 9.62054 9.08008 9.60292 8.97024C9.5853 8.8604 9.53921 8.75731 9.46939 8.67153L7.59198 6.76496V4.07236C7.59011 3.91089 7.52779 3.75621 7.41767 3.63972C7.30755 3.52324 7.1579 3.45368 6.99912 3.4452Z" fill="#595959"/>
</svg>
