<svg width="113" height="28" viewBox="0 0 113 28" fill="none" xmlns="http://www.w3.org/2000/svg">
<path d="M59.2845 10.9299V20.4762H61.8935V10.9299H59.2845Z" fill="#E01E37"/>
<path d="M59.5415 8.97317C59.8182 9.24988 60.1673 9.38823 60.589 9.38823C61.0238 9.38823 61.373 9.24988 61.6365 8.97317C61.9132 8.68329 62.0516 8.32752 62.0516 7.90588C62.0516 7.4974 61.9132 7.14823 61.6365 6.85835C61.373 6.56846 61.0238 6.42352 60.589 6.42352C60.1673 6.42352 59.8182 6.56846 59.5415 6.85835C59.2647 7.14823 59.1264 7.4974 59.1264 7.90588C59.1264 8.32752 59.2647 8.68329 59.5415 8.97317Z" fill="#E01E37"/>
<path fill-rule="evenodd" clip-rule="evenodd" d="M50.2111 6.58164C51.2389 6.58164 52.1876 6.75293 53.0572 7.09552C53.9401 7.43811 54.7043 7.92564 55.3499 8.55811C56.0088 9.1774 56.5161 9.9087 56.8718 10.752C57.2408 11.5953 57.4252 12.5176 57.4252 13.5191C57.4252 14.5205 57.2408 15.4494 56.8718 16.3059C56.5161 17.1492 56.0154 17.8871 55.3697 18.5195C54.7241 19.1388 53.9598 19.6198 53.077 19.9623C52.2074 20.3049 51.2652 20.4762 50.2507 20.4762H44.7956V6.58164H50.2111ZM50.1716 18.0847H47.4836V8.97317H50.1716C51.0544 8.97317 51.8318 9.16423 52.5038 9.54635C53.1758 9.91529 53.7029 10.4423 54.085 11.1275C54.4671 11.7995 54.6582 12.5901 54.6582 13.4993C54.6582 14.4348 54.4671 15.2452 54.085 15.9303C53.7161 16.6155 53.1956 17.1492 52.5236 17.5313C51.8516 17.9002 51.0676 18.0847 50.1716 18.0847Z" fill="#E01E37"/>
<path fill-rule="evenodd" clip-rule="evenodd" d="M68.1796 24.7059C67.165 24.7059 66.269 24.5214 65.4916 24.1525C64.7141 23.7967 64.0949 23.2894 63.6337 22.6306L65.2741 20.9901C65.6431 21.4249 66.0516 21.7543 66.4996 21.9783C66.9607 22.2155 67.5141 22.3341 68.1598 22.3341C68.9636 22.3341 69.596 22.1299 70.0572 21.7214C70.5316 21.3129 70.7687 20.7463 70.7687 20.0216V19.2298C70.5261 19.464 70.2428 19.662 69.9188 19.824C69.3786 20.0875 68.7593 20.2193 68.061 20.2193C67.2045 20.2193 66.4337 20.0151 65.7485 19.6066C65.0633 19.1849 64.5231 18.6118 64.1278 17.8871C63.7457 17.1623 63.5546 16.352 63.5546 15.456C63.5546 14.56 63.7457 13.7562 64.1278 13.0447C64.5231 12.3332 65.0633 11.7732 65.7485 11.3647C66.4337 10.9431 67.2045 10.7322 68.061 10.7322C68.7725 10.7322 69.3984 10.8706 69.9386 11.1473C70.2625 11.3092 70.5458 11.5073 70.7885 11.7415V10.9299H73.3579V19.9821C73.3579 20.9308 73.1339 21.7543 72.6859 22.4527C72.2511 23.1642 71.645 23.7176 70.8676 24.1129C70.0901 24.5082 69.1941 24.7059 68.1796 24.7059ZM68.5749 17.8673C69.0492 17.8673 69.4577 17.7685 69.8003 17.5708C70.156 17.36 70.4327 17.0767 70.6304 16.7209C70.828 16.352 70.9269 15.9369 70.9269 15.4758C70.9269 15.0014 70.828 14.5863 70.6304 14.2306C70.4327 13.8748 70.156 13.5981 69.8003 13.4005C69.4577 13.1896 69.0492 13.0842 68.5749 13.0842C68.1005 13.0842 67.6854 13.1896 67.3297 13.4005C66.9739 13.5981 66.6972 13.8814 66.4996 14.2503C66.3019 14.6061 66.2031 15.0146 66.2031 15.4758C66.2031 15.9238 66.3019 16.3322 66.4996 16.7012C66.6972 17.0569 66.9739 17.3402 67.3297 17.5511C67.6854 17.7619 68.1005 17.8673 68.5749 17.8673Z" fill="#E01E37"/>
<path d="M75.6329 10.9299V20.4762H78.2418V10.9299H75.6329Z" fill="#E01E37"/>
<path d="M75.8898 8.97317C76.1665 9.24988 76.5157 9.38823 76.9373 9.38823C77.3722 9.38823 77.7213 9.24988 77.9849 8.97317C78.2616 8.68329 78.3999 8.32752 78.3999 7.90588C78.3999 7.4974 78.2616 7.14823 77.9849 6.85835C77.7213 6.56846 77.3722 6.42352 76.9373 6.42352C76.5157 6.42352 76.1665 6.56846 75.8898 6.85835C75.6131 7.14823 75.4747 7.4974 75.4747 7.90588C75.4747 8.32752 75.6131 8.68329 75.8898 8.97317Z" fill="#E01E37"/>
<path d="M86.287 20.6738C85.1933 20.6738 84.2183 20.4367 83.3618 19.9623C82.5185 19.4748 81.8531 18.8094 81.3656 17.9661C80.878 17.1228 80.6343 16.1675 80.6343 15.1002V6.5816H83.3223V15.1792C83.3223 15.7985 83.4475 16.3322 83.6978 16.7802C83.9613 17.2282 84.3171 17.5774 84.7651 17.8277C85.2263 18.0649 85.7336 18.1835 86.287 18.1835C86.8536 18.1835 87.3543 18.0649 87.7891 17.8277C88.2239 17.5774 88.5665 17.2282 88.8169 16.7802C89.0804 16.3322 89.2122 15.8051 89.2122 15.199V6.5816H91.9199V15.12C91.9199 16.1872 91.6762 17.1425 91.1886 17.9858C90.7011 18.816 90.0357 19.4748 89.1924 19.9623C88.3623 20.4367 87.3938 20.6738 86.287 20.6738Z" fill="#E8E8E8"/>
<path d="M100.721 20.4762V15.0014C100.721 14.4348 100.543 13.9736 100.187 13.6178C99.8315 13.2621 99.3703 13.0842 98.8038 13.0842C98.4348 13.0842 98.1054 13.1632 97.8155 13.3214C97.5256 13.4795 97.295 13.7035 97.1238 13.9934C96.9656 14.2832 96.8866 14.6193 96.8866 15.0014V20.4762H94.2974V10.9298H96.8866V11.8245C97.1225 11.5824 97.3926 11.3764 97.6969 11.2065C98.2767 10.8903 98.9289 10.7322 99.6536 10.7322C100.352 10.7322 100.978 10.9101 101.531 11.2658C102.085 11.6084 102.52 12.063 102.836 12.6296C103.152 13.183 103.31 13.7825 103.31 14.4282V20.4762H100.721Z" fill="#E8E8E8"/>
<path d="M107.076 20.4762C107.603 20.6211 108.136 20.6936 108.677 20.6936C109.836 20.6936 110.752 20.4235 111.424 19.8832C112.096 19.3298 112.432 18.5854 112.432 17.6498C112.432 17.0701 112.313 16.5957 112.076 16.2268C111.852 15.8578 111.556 15.5614 111.187 15.3374C110.831 15.1134 110.449 14.9421 110.04 14.8235C109.645 14.6917 109.263 14.5797 108.894 14.4875C108.525 14.3821 108.222 14.2635 107.985 14.1317C107.761 14 107.649 13.8155 107.649 13.5783C107.649 13.3675 107.748 13.2028 107.945 13.0842C108.156 12.9656 108.453 12.9063 108.835 12.9063C109.256 12.9063 109.645 12.9854 110.001 13.1435C110.37 13.3016 110.699 13.5585 110.989 13.9143L112.551 12.3529C112.129 11.7995 111.595 11.3844 110.95 11.1077C110.317 10.831 109.606 10.6927 108.815 10.6927C108.064 10.6927 107.412 10.8178 106.858 11.0682C106.305 11.3185 105.877 11.6677 105.574 12.1157C105.284 12.5637 105.139 13.0908 105.139 13.6969C105.139 14.2767 105.251 14.751 105.475 15.12C105.712 15.4757 106.015 15.759 106.384 15.9698C106.753 16.1675 107.135 16.3322 107.53 16.464C107.939 16.5825 108.328 16.6945 108.696 16.8C109.065 16.8922 109.362 17.0108 109.586 17.1557C109.823 17.3007 109.942 17.5049 109.942 17.7684C109.942 18.0056 109.83 18.1835 109.606 18.3021C109.395 18.4207 109.079 18.48 108.657 18.48C108.13 18.48 107.649 18.3877 107.214 18.2032C106.779 18.0188 106.397 17.7421 106.068 17.3731L104.526 18.9345C104.842 19.3035 105.218 19.6197 105.653 19.8832C106.088 20.1336 106.562 20.3312 107.076 20.4762Z" fill="#E8E8E8"/>
<path fill-rule="evenodd" clip-rule="evenodd" d="M36.7843 11.0164H21.151V18.8197C21.151 23.1293 24.6506 26.6229 28.9676 26.6229C33.2847 26.6229 36.7843 23.1293 36.7843 18.8197V11.0164Z" fill="#E01E37"/>
<path d="M27.5882 0H0V28H27.5882C27.8202 28 28.0503 27.9914 28.2779 27.9746C23.5212 27.6225 19.7716 23.6582 19.7716 18.8197V9.63934H36.7843V9.18033C36.7843 4.11017 32.6671 0 27.5882 0Z" fill="#E8E8E8"/>
</svg>
