<svg width="14" height="14" viewBox="0 0 14 14" fill="none" xmlns="http://www.w3.org/2000/svg">
<path fill-rule="evenodd" clip-rule="evenodd" d="M6.6173 0.0903491C6.85823 -0.0301164 7.14181 -0.0301164 7.38273 0.0903491L13.5268 3.16245C13.8167 3.30741 13.9998 3.60375 13.9998 3.9279C13.9998 4.25205 13.8167 4.54838 13.5268 4.69335L7.38273 7.76545C7.14181 7.88591 6.85823 7.88591 6.6173 7.76545L0.473264 4.69335C0.183341 4.54838 0.000202874 4.25205 0.000202874 3.9279C0.000202874 3.60375 0.183341 3.30741 0.473265 3.16245L6.6173 0.0903491ZM2.76955 3.9279L7.00002 6.04319L11.2305 3.9279L7.00002 1.81261L2.76955 3.9279ZM0.0905342 6.61728C0.301902 6.19453 0.815944 6.02318 1.23868 6.23455L7 9.11529L12.7613 6.23455C13.1841 6.02318 13.6981 6.19453 13.9095 6.61728C14.1208 7.04002 13.9495 7.55408 13.5268 7.76545L7.38271 10.8376C7.14179 10.958 6.85821 10.958 6.61729 10.8376L0.473249 7.76545C0.0505138 7.55408 -0.120833 7.04002 0.0905342 6.61728ZM0.0905342 9.68938C0.301902 9.26663 0.815944 9.09528 1.23868 9.30665L7 12.1874L12.7613 9.30665C13.1841 9.09528 13.6981 9.26663 13.9095 9.68938C14.1208 10.1121 13.9495 10.6262 13.5268 10.8376L7.38271 13.9096C7.14179 14.0301 6.85821 14.0301 6.61729 13.9096L0.473249 10.8376C0.0505139 10.6262 -0.120833 10.1121 0.0905342 9.68938Z" fill="#595959"/>
</svg>
