<svg width="16" height="16" viewBox="0 0 16 16" fill="none" xmlns="http://www.w3.org/2000/svg">
<path d="M0 0.941176C0 0.421379 0.421379 0 0.941176 0H15.0588C15.5786 0 16 0.421379 16 0.941176C16 1.46097 15.5786 1.88235 15.0588 1.88235H0.941176C0.421379 1.88235 0 1.46097 0 0.941176Z" fill="#E01E37"/>
<path d="M0 15.0588C0 14.539 0.421379 14.1176 0.941176 14.1176H13.1765C13.6963 14.1176 14.1176 14.539 14.1176 15.0588C14.1176 15.5786 13.6963 16 13.1765 16H0.941176C0.421379 16 0 15.5786 0 15.0588Z" fill="#E01E37"/>
<path d="M0 10.3529C0 9.83314 0.421379 9.41177 0.941176 9.41177H15.0588C15.5786 9.41177 16 9.83314 16 10.3529C16 10.8727 15.5786 11.2941 15.0588 11.2941H0.941176C0.421379 11.2941 0 10.8727 0 10.3529Z" fill="#E01E37"/>
<path d="M0 5.64706C0 5.12726 0.421379 4.70588 0.941176 4.70588H10.3529C10.8727 4.70588 11.2941 5.12726 11.2941 5.64706C11.2941 6.16686 10.8727 6.58824 10.3529 6.58824H0.941176C0.421379 6.58824 0 6.16686 0 5.64706Z" fill="#E01E37"/>
</svg>
