<svg width="16" height="16" viewBox="0 0 16 16" fill="none" xmlns="http://www.w3.org/2000/svg">
<path fill-rule="evenodd" clip-rule="evenodd" d="M6.83274 0.282245C7.19237 0.0956818 7.59462 0 8 0C8.4054 0 8.80766 0.0956897 9.16731 0.282269L9.16893 0.283109L14.7689 3.16369C15.1289 3.35078 15.4384 3.62528 15.6584 3.96784C15.8789 4.31128 15.9995 4.70837 16 5.1185V10.8815C15.9995 11.2916 15.8789 11.6887 15.6584 12.0322C15.4384 12.3747 15.1289 12.6492 14.7689 12.8363L14.7659 12.8378L9.16893 15.7169L9.16725 15.7178C8.80762 15.9043 8.40538 16 8 16C7.59463 16 7.19241 15.9043 6.83279 15.7178L6.83107 15.7169L1.23406 12.8378L1.23107 12.8363C0.871102 12.6492 0.561572 12.3747 0.341603 12.0322C0.121067 11.6887 0.0004673 11.2916 0 10.8815V5.1185C0.0004673 4.70837 0.121067 4.31128 0.341603 3.96784C0.561573 3.62528 0.871103 3.35078 1.23107 3.1637L1.23406 3.16215L6.83274 0.282245ZM8.8 14.1074L14.0311 11.4166L14.0323 11.4159C14.1577 11.3505 14.2514 11.2621 14.3121 11.1676C14.3724 11.0737 14.3999 10.9747 14.4 10.8797V5.87238L8.8 8.50768V14.1074ZM7.2 8.50768V14.1074L1.96893 11.4166L1.96762 11.4159C1.84227 11.3505 1.74858 11.2621 1.68793 11.1676C1.62771 11.0739 1.60018 10.9749 1.6 10.88V5.87239L7.2 8.50768ZM8 1.6C7.84429 1.6 7.69533 1.63712 7.56893 1.70282L7.56594 1.70437L2.27931 4.42375L7.99999 7.11584L13.7207 4.42375L8.43107 1.70282C8.30467 1.63713 8.15571 1.6 8 1.6Z" fill="#E01E37"/>
</svg>
