<svg width="16" height="16" viewBox="0 0 16 16" fill="none" xmlns="http://www.w3.org/2000/svg">
<path d="M0 0.941176C0 0.421379 0.421379 0 0.941176 0H1.88235C2.40215 0 2.82353 0.421379 2.82353 0.941176C2.82353 1.46097 2.40215 1.88235 1.88235 1.88235H0.941176C0.421379 1.88235 0 1.46097 0 0.941176Z" fill="#E01E37"/>
<path d="M4.70588 0.941176C4.70588 0.421379 5.12726 0 5.64706 0H15.0588C15.5786 0 16 0.421379 16 0.941176C16 1.46097 15.5786 1.88235 15.0588 1.88235H5.64706C5.12726 1.88235 4.70588 1.46097 4.70588 0.941176Z" fill="#E01E37"/>
<path d="M0 15.0588C0 14.539 0.421379 14.1176 0.941176 14.1176H1.88235C2.40215 14.1176 2.82353 14.539 2.82353 15.0588C2.82353 15.5786 2.40215 16 1.88235 16H0.941176C0.421379 16 0 15.5786 0 15.0588Z" fill="#E01E37"/>
<path d="M4.70588 15.0588C4.70588 14.539 5.12726 14.1176 5.64706 14.1176H15.0588C15.5786 14.1176 16 14.539 16 15.0588C16 15.5786 15.5786 16 15.0588 16H5.64706C5.12726 16 4.70588 15.5786 4.70588 15.0588Z" fill="#E01E37"/>
<path d="M0 7.52941C0 7.00961 0.421379 6.58824 0.941176 6.58824H1.88235C2.40215 6.58824 2.82353 7.00961 2.82353 7.52941C2.82353 8.04921 2.40215 8.47059 1.88235 8.47059H0.941176C0.421379 8.47059 0 8.04921 0 7.52941Z" fill="#E01E37"/>
<path d="M4.70588 7.52941C4.70588 7.00961 5.12726 6.58824 5.64706 6.58824H15.0588C15.5786 6.58824 16 7.00961 16 7.52941C16 8.04921 15.5786 8.47059 15.0588 8.47059H5.64706C5.12726 8.47059 4.70588 8.04921 4.70588 7.52941Z" fill="#E01E37"/>
</svg>
